HIERARCHY
ROOT pelvis
{
  OFFSET 0 0 0
  CHANNELS 6 Xposition Yposition Zposition Zrotation Xrotation Yrotation
  JOINT pelvis_right_femur
  {
    OFFSET -11.43119 -3.542788 0.2090856
    CHANNELS 3 Zrotation Xrotation Yrotation
    JOINT right_femur_tibia
    {
      OFFSET -1.028693 -40.73281 5
      CHANNELS 3 Zrotation Xrotation Yrotation
      JOINT right_tibia_foot
      {
        OFFSET -0.5013517 -42.05707 -5
        CHANNELS 3 Zrotation Xrotation Yrotation
        End Site
        {
          OFFSET 0 -5 10
        }
      }
    }
  }
  JOINT pelvis_left_femur
  {
    OFFSET 11.43119 -3.542788 0.2090856
    CHANNELS 3 Zrotation Xrotation Yrotation
    JOINT left_femur_tibia
    {
      OFFSET 1.028693 -40.73281 5
      CHANNELS 3 Zrotation Xrotation Yrotation
      JOINT left_tibia_foot
      {
        OFFSET 0.3200228 -42.98253 -5
        CHANNELS 3 Zrotation Xrotation Yrotation
        End Site
        {
          OFFSET 0 -5 10
        }
      }
    }
  }
  JOINT pelvis_spine1
  {
    OFFSET 0 8.64413 -3.209807
    CHANNELS 3 Zrotation Xrotation Yrotation
    JOINT spine1
    {
      OFFSET 0 29.53957 -1.762685
      CHANNELS 3 Zrotation Xrotation Yrotation
      JOINT spine2
      {
        OFFSET 0 16.36153 -0.1422377
        CHANNELS 3 Zrotation Xrotation Yrotation
        JOINT neck
        {
          OFFSET 0 11.60093 5
          CHANNELS 3 Zrotation Xrotation Yrotation
          End Site
          {
            OFFSET 0 20 0
          }
        }
      }
      JOINT right_manubrium
      {
        OFFSET -4.671311 15.89868 4
        CHANNELS 3 Zrotation Xrotation Yrotation
        JOINT right_clavicle
        {
          OFFSET -13.601 1.573642 -2.74176
          CHANNELS 3 Zrotation Xrotation Yrotation
          JOINT right_humerus
          {
            OFFSET -0.06331682 -27.72702 2.252146
            CHANNELS 3 Zrotation Xrotation Yrotation
            JOINT right_radius
            {
              OFFSET -0.5696302 -23.92083 0.4042105
              CHANNELS 3 Zrotation Xrotation Yrotation
              End Site
              {
                OFFSET 0 -15 0
              }
            }
          }
        }
      }
      JOINT left_manubrium
      {
        OFFSET 4.671311 15.89868 4
        CHANNELS 3 Zrotation Xrotation Yrotation
        JOINT left_clavicle
        {
          OFFSET 13.601 1.573642 -2.74176
          CHANNELS 3 Zrotation Xrotation Yrotation
          JOINT left_humerus
          {
            OFFSET 0.000209614 -29.01858 1.101395
            CHANNELS 3 Zrotation Xrotation Yrotation
            JOINT left_radius
            {
              OFFSET -0.2288314 -24.59216 1.790347
              CHANNELS 3 Zrotation Xrotation Yrotation
              End Site
              {
                OFFSET 0 -15 0
              }
            }
          }
        }
      }
    }
  }
}
MOTION
Frames: 7
Frame Time: 0.0416666666667
22.67104 51.37574 -1.512129 11.0465 -15.49322 46.41237 -56.27499 -61.65991 -55.27956 -180 85.18271 -180 5.641419 5.665849 -1.325896 70.62203 -52.23827 66.38905 -180 79.7763 -180 -4.893032 3.358816 -19.41767 -1.606821 19.72619 -0.565211 10.63752 13.78836 -11.98588 -8.119881 9.283937 7.0581 9.549745 -27.02023 5.420182 21.95014 -7.369832 21.75039 -58.56373 -33.45429 12.18909 0 -68.3784 0 15.46332 -0.5810619 32.74095 -26.28408 -29.32843 -9.947044 55.14467 -30.00609 -36.26224 0 -70.09074 0 -18.34314 -3.556226 4.227724
22.8693 51.36241 -1.618487 11.20399 -15.41747 46.9071 -56.24278 -61.63595 -55.24317 -180 85.18114 -180 5.640293 5.663112 -1.31564 70.57149 -52.23566 66.32358 -180 79.77345 -180 -4.894569 3.350274 -19.40813 -1.651184 19.81527 -0.558319 10.55721 13.74286 -11.86311 -8.292647 9.279228 7.07345 9.492826 -26.99865 5.422585 21.97733 -7.322748 21.66741 -58.67987 -33.34608 12.17176 0 -68.42731 0 15.08503 -1.271268 31.97171 -26.32668 -29.36875 -9.811339 55.09038 -29.7493 -36.07688 0 -70.10117 0 -18.31625 -3.114283 3.047379
23.06183 51.3487 -1.725733 11.36707 -15.35412 47.38936 -56.18838 -61.59955 -55.18809 -180 85.18267 -180 5.636642 5.662267 -1.301121 70.50187 -52.2304 66.23088 -180 79.77089 -180 -4.895919 3.340233 -19.39428 -1.705264 19.89861 -0.5374459 10.48057 13.70084 -11.73789 -8.473832 9.260973 7.086006 9.436996 -26.99584 5.412571 22.00409 -7.274693 21.58989 -58.81298 -33.23061 12.1544 0 -68.43525 0 14.66724 -2.013167 31.12504 -26.37003 -29.41661 -9.66724 55.06509 -29.48082 -35.85908 0 -70.07841 0 -18.35056 -2.590206 1.756833
23.24955 51.33567 -1.834109 11.53661 -15.30128 47.86203 -56.11355 -61.55108 -55.11262 -180 85.18685 -180 5.630684 5.662607 -1.28438 70.41206 -52.2218 66.11385 -180 79.76945 -180 -4.896593 3.328948 -19.37835 -1.769605 19.97656 -0.5000166 10.40838 13.66397 -11.61548 -8.66465 9.22423 7.093481 9.382915 -27.02005 5.387229 22.02994 -7.229629 21.51989 -58.96818 -33.10711 12.12963 0 -68.39544 0 14.2045 -2.808736 30.19228 -26.4203 -29.4708 -9.517048 55.06608 -29.20439 -35.61414 0 -70.02202 0 -18.44622 -1.969621 0.3485323
23.43326 51.32452 -1.943643 11.71317 -15.25683 48.32807 -56.02063 -61.49125 -55.01629 -180 85.19313 -180 5.62267 5.663465 -1.267023 70.30178 -52.2093 65.97559 -180 79.76978 -180 -4.896244 3.31655 -19.36222 -1.844314 20.04986 -0.4442406 10.34048 13.63349 -11.49987 -8.865871 9.165731 7.093923 9.331054 -27.07748 5.344292 22.05398 -7.190362 21.459 -59.14851 -32.97591 12.09266 0 -68.30528 0 13.69139 -3.65799 29.16791 -26.48254 -29.53019 -9.362302 55.09009 -28.92316 -35.34651 0 -69.9347 0 -18.59926 -1.242193 -1.18103
23.61359 51.31625 -2.054166 11.89677 -15.21848 48.78984 -55.91274 -61.42137 -54.90054 -180 85.20083 -180 5.612851 5.664292 -1.24986 70.17202 -52.19265 65.81923 -180 79.77206 -180 -4.894808 3.302938 -19.34697 -1.928799 20.11973 -0.3697646 10.27527 13.61002 -11.39279 -9.077502 9.085133 7.086108 9.281642 -27.1708 5.282741 22.07414 -7.157303 21.40768 -59.35315 -32.83969 12.04393 0 -68.17085 0 13.12279 -4.559068 28.05156 -26.55903 -29.59401 -9.202663 55.13363 -28.63908 -35.05848 0 -69.82438 0 -18.80077 -0.404671 -2.829629
23.7908 51.31131 -2.165277 12.08667 -15.18383 49.2483 -55.79392 -61.34352 -54.76856 -180 85.20895 -180 5.601482 5.664579 -1.232937 70.02481 -52.17178 65.64788 -180 79.77604 -180 -4.892506 3.287701 -19.33299 -2.021881 20.18809 -0.2773865 10.20942 13.59373 -11.29376 -9.299009 8.984852 7.069312 9.234775 -27.29979 5.202442 22.08668 -7.128257 21.36531 -59.57743 -32.70413 11.98959 0 -68.00823 0 12.49261 -5.510186 26.84655 -26.64954 -29.66198 -9.035362 55.19302 -28.35275 -34.74964 0 -69.70546 0 -19.03808 0.5406044 -4.592243
